<svg xmlns="http://www.w3.org/2000/svg" xmlns:xlink="http://www.w3.org/1999/xlink" width="1080" zoomAndPan="magnify" viewBox="0 0 810 809.999993" height="1080" preserveAspectRatio="xMidYMid meet" version="1.0"><defs><clipPath id="2c049d37fb"><path d="M 62 98.082031 L 741 98.082031 L 741 694 L 62 694 Z M 62 98.082031 " clip-rule="nonzero"/></clipPath></defs><path fill="#ff55dd" d="M 394.867188 710.261719 C 338.578125 707.792969 290.957031 696.746094 262.21875 679.5 C 252.957031 673.941406 247.152344 669.335938 240.070312 661.925781 C 232.945312 654.472656 229.585938 649.230469 222.523438 634.53125 C 218.363281 625.878906 215.921875 621.710938 213.582031 619.269531 C 210.585938 616.144531 210.109375 615.910156 206.757812 615.910156 C 197.082031 615.910156 183.164062 628.210938 176.28125 642.851562 C 173.464844 648.839844 171.789062 654.523438 168.804688 668.230469 C 166 681.121094 162.78125 686.882812 156.609375 690.050781 C 151.054688 692.90625 144.414062 690.828125 135.886719 683.566406 C 120.761719 670.6875 107.191406 644.804688 99.476562 614.113281 C 91.496094 582.375 88.652344 541.472656 88.632812 458.203125 C 88.621094 396.339844 90.433594 373.988281 97.945312 343.472656 C 100.632812 332.542969 100.6875 332.078125 99.65625 328.746094 C 98.976562 326.554688 98.738281 323.953125 99 321.585938 C 99.949219 312.941406 106.625 299.015625 112.753906 292.886719 C 116.519531 289.128906 122.972656 285.789062 129.421875 284.261719 C 133.113281 283.390625 136.335938 283.214844 142.898438 283.527344 C 159.714844 284.328125 172.714844 290.109375 184.277344 301.929688 C 187.265625 304.984375 194.707031 314.078125 200.8125 322.136719 C 214.550781 340.269531 221.308594 348.441406 224.933594 351.289062 C 232.519531 357.257812 239.242188 358.199219 246.847656 354.363281 C 256.519531 349.484375 280.507812 335.292969 297.101562 324.632812 C 335.3125 300.082031 339.25 296.148438 345.523438 276.253906 C 348.929688 265.445312 351.039062 255.757812 354.945312 232.984375 C 356.742188 222.511719 359.027344 211.035156 360.023438 207.480469 C 363.511719 195.035156 368.757812 186.824219 376.367188 181.910156 C 381.988281 178.277344 387.84375 176.5 397.53125 175.476562 C 401.800781 175.027344 406.585938 174.078125 408.167969 173.371094 C 409.75 172.664062 414.632812 168.71875 419.019531 164.609375 C 433.164062 151.347656 441.652344 146.140625 453.949219 143.175781 C 470.84375 139.101562 493.054688 141.335938 508.257812 148.632812 C 521.933594 155.199219 531.59375 168.09375 541.039062 192.390625 C 545.742188 204.488281 549.203125 215.097656 553.449219 230.429688 C 559.546875 252.441406 562.003906 268.628906 563.066406 293.792969 C 563.453125 302.9375 564.117188 311.183594 564.542969 312.113281 C 565.8125 314.890625 569.582031 316.800781 582.660156 321.28125 C 633.300781 338.640625 654.261719 348.875 677.390625 367.53125 C 693.851562 380.808594 712.402344 401.871094 722.453125 418.695312 C 741.351562 450.320312 747.992188 486.007812 741.785156 522.613281 C 734.394531 566.210938 713.371094 609.558594 686.785156 636.042969 C 677.3125 645.476562 670.957031 650.417969 658.890625 657.742188 C 626.375 677.46875 567.253906 696.085938 513.484375 703.523438 C 475.035156 708.84375 426.027344 711.625 394.871094 710.257812 Z M 394.867188 710.261719 " fill-opacity="1" fill-rule="nonzero"/><g clip-path="url(#2c049d37fb)"><path fill="#000000" d="M 390.109375 693.222656 C 345.761719 690.253906 314.492188 682.175781 266.464844 661.285156 C 258.558594 657.847656 244.972656 652.019531 236.273438 648.332031 C 212.277344 638.167969 194.429688 629.269531 181.753906 621.144531 L 177.558594 618.457031 L 172.960938 622.484375 C 167.503906 627.273438 166.859375 628.148438 161.589844 637.871094 C 154.21875 651.472656 149.894531 655.882812 139.582031 660.324219 C 124.550781 666.800781 111.40625 659.683594 106.234375 642.277344 C 104.671875 637.003906 104.746094 627.140625 106.519531 605.945312 C 107.648438 592.496094 110.808594 534.953125 110.824219 527.660156 C 110.828125 526.554688 109.917969 527.128906 106.695312 530.269531 C 102.386719 534.460938 81.714844 550.019531 77.683594 552.101562 C 74.855469 553.5625 70.433594 553.136719 67.757812 551.144531 C 66.734375 550.382812 65.320312 548.210938 64.613281 546.320312 C 63.40625 543.085938 63.402344 542.511719 64.484375 536.695312 C 65.117188 533.292969 67.445312 523.074219 69.65625 513.988281 C 73.429688 498.484375 73.675781 496.929688 73.640625 488.839844 C 73.578125 475.746094 71.039062 461.347656 65.125 440.5625 C 62.277344 430.550781 62.011719 429.019531 62.746094 426.742188 C 63.867188 423.25 64.660156 422.402344 68.25 420.867188 C 71.261719 419.574219 71.4375 419.578125 74.894531 420.886719 C 76.84375 421.628906 80.472656 423.691406 82.953125 425.472656 C 87.414062 428.675781 98.789062 439.929688 106.699219 448.96875 L 110.789062 453.636719 L 110.804688 451.316406 C 110.835938 448.070312 108.109375 417.5 107.171875 410.53125 C 106.746094 407.371094 105.15625 397.351562 103.636719 388.261719 C 97.542969 351.816406 97.972656 338.40625 105.523438 329.195312 C 110.421875 323.21875 120.261719 318.214844 127.105469 318.214844 C 135.789062 318.214844 148.695312 327.476562 156.640625 339.40625 C 166.214844 353.792969 174.136719 370.757812 178.726562 386.726562 C 179.734375 390.226562 180.558594 393.519531 180.558594 394.046875 C 180.558594 396.464844 182.007812 395.269531 185.539062 389.929688 C 189.863281 383.402344 206.378906 366.417969 215.394531 359.238281 C 247.980469 333.28125 293.175781 313.804688 341.539062 304.878906 C 346.855469 303.894531 351.335938 302.960938 351.496094 302.800781 C 351.660156 302.636719 351.238281 296.480469 350.5625 289.121094 C 349.183594 274.117188 349.664062 259.925781 352.390625 235.125 C 354.09375 219.625 354.714844 216.308594 357.476562 207.839844 C 363.976562 187.933594 378 176.417969 401.253906 171.90625 C 407.613281 170.671875 425.734375 168.816406 431.625 168.792969 L 435.753906 168.78125 L 435.359375 149.203125 C 435.140625 138.4375 434.808594 128.582031 434.613281 127.304688 L 434.261719 124.984375 L 429.800781 125.390625 C 423.761719 125.941406 423.949219 125.832031 422.835938 129.371094 C 420.789062 135.867188 417.804688 137.519531 403.027344 140.335938 C 397.503906 141.390625 390.84375 142.75 388.222656 143.359375 C 384.023438 144.335938 383.078125 144.34375 380.3125 143.425781 C 378.300781 142.761719 376.65625 141.597656 375.734375 140.1875 C 374.902344 138.917969 373.542969 137.894531 372.515625 137.761719 C 369.371094 137.351562 368.796875 134.992188 369.144531 123.878906 C 369.503906 112.515625 370.578125 108.035156 373.929688 103.988281 C 377.023438 100.253906 382.957031 98.089844 388.441406 98.699219 C 393.34375 99.246094 404.976562 103.070312 411.019531 106.125 C 415.003906 108.136719 419.335938 112 420.066406 114.191406 C 420.253906 114.75 422.734375 115.195312 426.980469 115.4375 L 433.601562 115.816406 L 433.601562 113.261719 C 433.601562 110.445312 435.71875 104.917969 437.277344 103.65625 C 439.226562 102.082031 442.777344 101.816406 445.375 103.050781 C 452.066406 106.222656 452.390625 115.996094 447 152.371094 L 444.695312 167.933594 L 454.425781 168.175781 C 463.34375 168.402344 464.496094 168.589844 468.226562 170.421875 C 473.234375 172.878906 479.921875 179.824219 483.585938 186.367188 C 487.292969 192.996094 490.820312 203.296875 492.890625 213.542969 C 494.636719 222.175781 495.332031 229.492188 496.902344 255.710938 C 497.34375 263.019531 497.984375 273.203125 498.328125 278.339844 C 498.675781 283.476562 498.972656 290.347656 498.988281 293.609375 C 499.007812 296.867188 499.265625 299.535156 499.558594 299.539062 C 499.855469 299.539062 505.65625 300.347656 512.445312 301.335938 C 584.742188 311.84375 642.308594 337.511719 684.011719 377.839844 C 717.109375 409.847656 732.175781 436.726562 738.785156 475.558594 C 740.34375 484.71875 740.957031 506.851562 739.9375 517.21875 C 736.335938 553.839844 724.328125 590.703125 707.039062 618.230469 C 689.015625 646.925781 672.3125 660.085938 637.40625 673.097656 C 608.34375 683.933594 571.4375 689.214844 501.539062 692.542969 C 480.632812 693.539062 401.980469 694.019531 390.113281 693.222656 Z M 490.394531 675.992188 C 529.433594 674.519531 558.464844 672.265625 583.847656 668.742188 C 629.390625 662.417969 662.738281 647.78125 680.792969 626.191406 C 685.851562 620.140625 693.453125 609.277344 692.964844 608.789062 C 692.8125 608.636719 691.089844 609.046875 689.128906 609.695312 C 686.496094 610.566406 682.851562 610.878906 675.144531 610.890625 C 665.234375 610.90625 664.367188 610.792969 657.53125 608.519531 C 632.566406 600.226562 615.136719 583.195312 603.441406 555.65625 C 594.839844 535.40625 591.160156 520.246094 590.542969 502.492188 C 590.074219 489.011719 590.984375 482.839844 595.359375 469.804688 C 605.742188 438.863281 620.292969 417.328125 637.996094 406.703125 C 649.964844 399.515625 665.257812 396.222656 677.660156 398.164062 L 681.253906 398.726562 L 672.988281 390.613281 C 633.285156 351.660156 579.855469 327.960938 509.082031 317.910156 C 481.457031 313.988281 474.710938 313.542969 442.945312 313.546875 C 425.34375 313.550781 408.394531 313.925781 401.609375 314.464844 C 327.75 320.332031 282.824219 333.71875 238.785156 362.980469 C 221.4375 374.503906 202.941406 392.601562 196.054688 404.785156 C 193.414062 409.453125 190.820312 412.210938 187.921875 413.429688 C 186.328125 414.097656 185.585938 414.894531 185.585938 415.933594 C 185.585938 418.15625 183.878906 419.511719 181.085938 419.511719 C 178.289062 419.511719 178.46875 419.789062 174.417969 409.09375 C 169.8125 396.933594 162.910156 382.472656 157.335938 373.304688 C 154.410156 368.492188 149.964844 360.902344 147.460938 356.445312 C 142.347656 347.34375 137.144531 341.152344 131.410156 337.351562 C 127.070312 334.46875 125.210938 334.535156 120.878906 337.722656 C 117.144531 340.46875 116.574219 342.339844 116.574219 351.808594 C 116.574219 361.246094 117.457031 368.765625 121.195312 391.132812 C 125.566406 417.308594 127.90625 443.152344 128.566406 472.539062 L 129.023438 492.878906 L 131.605469 492.5 C 139.59375 491.324219 155.183594 490.59375 157.0625 491.304688 C 160.832031 492.738281 161.121094 492.082031 157.992188 489.199219 C 150.015625 481.847656 151 469.484375 160.578125 456.785156 C 165.492188 450.265625 167.101562 448.996094 171.144531 448.453125 C 178.769531 447.429688 186.988281 453.359375 189.484375 461.679688 C 191.832031 469.488281 189.828125 479.667969 184.597656 486.519531 C 181.785156 490.207031 178.761719 492.3125 174.464844 493.582031 C 172.105469 494.277344 171.304688 494.84375 171.554688 495.640625 C 171.746094 496.246094 171.976562 498.589844 172.066406 500.851562 C 172.21875 504.539062 172.429688 505.035156 174.128906 505.742188 C 179.175781 507.832031 185.585938 517.925781 185.585938 523.785156 C 185.585938 531.878906 179.421875 540.242188 171.671875 542.664062 C 167.589844 543.941406 167.328125 543.941406 163.046875 542.65625 C 159.613281 541.628906 157.820312 540.527344 155.007812 537.71875 C 150.0625 532.773438 148.554688 529.480469 148.597656 523.683594 C 148.621094 520.285156 149.070312 518.175781 150.246094 515.929688 C 152.324219 511.960938 156.261719 507.617188 159.597656 505.613281 C 161.042969 504.746094 162.3125 503.976562 162.417969 503.90625 C 162.527344 503.832031 162.410156 503.242188 162.164062 502.59375 C 161.589844 501.101562 160.542969 501.105469 157.527344 502.609375 C 155.339844 503.699219 153.988281 503.722656 142.386719 502.882812 C 135.382812 502.375 129.296875 502.179688 128.863281 502.445312 C 128.355469 502.761719 128.070312 506.425781 128.0625 512.769531 C 128.054688 518.179688 127.746094 528.910156 127.375 536.613281 C 127.003906 544.320312 126.359375 558.382812 125.941406 567.867188 C 125.519531 577.347656 124.492188 593.191406 123.652344 603.070312 C 121.648438 626.613281 121.539062 637.445312 123.273438 640.648438 C 126.199219 646.050781 129.277344 647.066406 134.554688 644.375 C 138.589844 642.320312 141.824219 638.828125 144.957031 633.152344 C 154.265625 616.296875 159.125 610.347656 166.15625 607.214844 C 172.101562 604.566406 175.226562 604.710938 179.960938 607.851562 C 187.832031 613.074219 192.089844 614.847656 217.710938 623.582031 C 225.71875 626.3125 245.84375 634.363281 262.613281 641.542969 C 279.324219 648.703125 296.25 655.78125 300.21875 657.277344 C 331.792969 669.167969 361.253906 674.953125 399.246094 676.710938 C 414.445312 677.417969 462.683594 677.035156 490.390625 675.988281 Z M 286.59375 595.53125 C 256.367188 593.707031 236.230469 583.320312 221.777344 562.101562 C 215.542969 552.945312 211.988281 545.636719 208.335938 534.460938 C 203.402344 519.367188 201.855469 510.390625 201.832031 496.742188 C 201.808594 483.453125 202.847656 477.09375 207.0625 464.644531 C 213.195312 446.53125 217.617188 438.84375 232.914062 419.71875 C 242.070312 408.273438 246.378906 404.371094 253.414062 401.148438 C 260.292969 398.003906 264.949219 397.90625 268.097656 400.835938 L 269.703125 402.332031 L 287.492188 398.761719 C 307.964844 394.65625 311.925781 394.078125 330.085938 392.585938 C 361.644531 389.984375 408.507812 389.511719 431.445312 391.558594 C 461.101562 394.207031 477.175781 400.019531 490.640625 412.960938 C 502.160156 424.035156 508.300781 438.84375 511.402344 463 C 512.824219 474.097656 512.535156 515.203125 510.953125 526.203125 C 508.195312 545.371094 500.988281 559.027344 487.550781 570.53125 C 473.621094 582.457031 443.363281 590.828125 401.253906 594.398438 C 386.359375 595.660156 302.46875 596.492188 286.59375 595.53125 Z M 382.5625 578.605469 C 400.816406 578.148438 413.789062 576.867188 430.007812 573.914062 C 458.042969 568.808594 469.664062 564.3125 479.820312 554.636719 C 488.925781 545.964844 492.734375 536.878906 494.664062 519.222656 C 495.648438 510.210938 495.652344 471.21875 494.667969 463.316406 C 493.515625 454.058594 490.628906 443.527344 487.414062 436.847656 C 483.457031 428.628906 475.789062 420.800781 468.109375 417.140625 C 452.164062 409.539062 433.65625 407.261719 387.828125 407.265625 C 359.332031 407.269531 347.226562 407.746094 323.253906 409.800781 C 309.339844 410.996094 292.78125 412.078125 277.648438 412.78125 C 268.277344 413.214844 266.8125 413.464844 262.628906 415.363281 C 260.082031 416.515625 257.027344 418.167969 255.84375 419.027344 C 253.667969 420.605469 238.941406 438.496094 234.554688 444.886719 C 228.703125 453.414062 220.953125 473.734375 219.351562 484.746094 C 218.8125 488.425781 218.625 494.753906 218.855469 501.269531 C 219.167969 510.171875 219.585938 513.128906 221.503906 520.09375 C 225.816406 535.726562 229.25 543.574219 235.96875 553.140625 C 245.507812 566.722656 257.050781 573.9375 274.648438 577.308594 C 285.589844 579.40625 329.441406 579.933594 382.5625 578.605469 Z M 321.613281 570.316406 C 303.257812 569.207031 283.347656 565.691406 271.523438 561.46875 C 260.46875 557.519531 251.199219 550.78125 246.425781 543.222656 C 239.347656 532.023438 234.691406 500 237.691406 483.175781 C 239.519531 472.921875 247.984375 457.960938 257.25 448.609375 C 270.4375 435.300781 285.65625 427.640625 305.980469 424.078125 C 316.242188 422.277344 348.882812 421.902344 359.921875 423.457031 C 366.867188 424.433594 373.660156 424.652344 394.785156 424.582031 C 410.730469 424.527344 423.265625 424.804688 426.742188 425.292969 C 440.03125 427.15625 452.300781 431.46875 463.410156 438.175781 C 483.941406 450.566406 489.890625 463.097656 489.871094 493.871094 C 489.859375 514.503906 483.511719 530.511719 469.90625 544.210938 C 453 561.234375 433.203125 567.488281 390.472656 569.308594 C 384.738281 569.554688 374.546875 570.050781 367.828125 570.417969 C 353.722656 571.183594 335.332031 571.140625 321.617188 570.316406 Z M 387.957031 552.722656 C 418.550781 551.1875 429.738281 549.3125 441.460938 543.746094 C 454.175781 537.710938 462.117188 530.273438 467.097656 519.734375 C 471.601562 510.214844 472.507812 506.183594 472.925781 493.871094 C 473.351562 481.441406 472.222656 472.996094 469.289062 466.589844 C 463.652344 454.289062 443.121094 443.882812 420.074219 441.65625 C 413.679688 441.039062 411.34375 441.066406 409.148438 441.789062 C 406.921875 442.523438 405.929688 442.53125 404.21875 441.820312 C 402.632812 441.164062 398.09375 441.042969 386.746094 441.351562 C 378.316406 441.578125 361.554688 441.851562 349.496094 441.953125 C 327.648438 442.144531 327.5625 442.136719 325.261719 440.5 C 323.035156 438.914062 322.695312 438.878906 315.914062 439.59375 C 304.0625 440.835938 291.507812 444.453125 284.085938 448.761719 C 270.847656 456.441406 259.152344 470.199219 255.300781 482.632812 C 253.148438 489.574219 253.296875 506.765625 255.609375 517.9375 C 258.769531 533.226562 261.648438 538.082031 270.203125 542.546875 C 285.152344 550.347656 318.851562 555.015625 353.808594 554.125 C 360.726562 553.949219 376.09375 553.320312 387.957031 552.722656 Z M 314.8125 535.125 C 313.980469 534.640625 313.554688 533.507812 313.554688 531.800781 C 313.554688 529.042969 314.671875 527.75 323.609375 520.195312 C 325.78125 518.363281 331.28125 513.625 335.832031 509.671875 C 352.894531 494.84375 367.765625 483.324219 383.453125 472.789062 C 397.722656 463.207031 408.664062 460.171875 411.285156 465.066406 C 413.488281 469.183594 407.394531 476.898438 395.753906 484.726562 C 392.257812 487.078125 383.550781 493.167969 376.414062 498.261719 C 369.273438 503.355469 360.445312 509.300781 356.796875 511.472656 C 353.152344 513.644531 343.195312 520.03125 334.679688 525.660156 C 326.160156 531.292969 318.488281 535.890625 317.628906 535.878906 C 316.773438 535.867188 315.503906 535.527344 314.8125 535.121094 Z M 392.789062 517.539062 C 390.957031 516.253906 390.726562 513.894531 392.226562 511.753906 C 393.695312 509.65625 408.867188 499.714844 412.90625 498.199219 C 416.710938 496.773438 420.972656 497.152344 421.675781 498.976562 C 422.699219 501.644531 422.042969 503.789062 419.492188 506.125 C 416.59375 508.78125 397.875 518.65625 395.742188 518.65625 C 394.996094 518.65625 393.667969 518.152344 392.789062 517.539062 Z M 286.058594 497.257812 C 283.644531 496.953125 282.355469 494.769531 282.921875 491.945312 C 283.375 489.675781 287.683594 483.75 293.683594 477.140625 C 295.730469 474.882812 298.667969 471.464844 300.207031 469.539062 C 303.363281 465.597656 309.753906 461.183594 312.304688 461.183594 C 314.699219 461.183594 317.148438 463.707031 317.148438 466.167969 C 317.148438 469.414062 312.421875 475.546875 304.570312 482.484375 C 300.613281 485.976562 295.601562 490.554688 293.425781 492.660156 C 288.339844 497.578125 288.386719 497.550781 286.058594 497.257812 Z M 537.972656 565.332031 C 521.292969 556.90625 515.417969 537.144531 524.148438 518.867188 C 527.382812 512.097656 531.523438 507.550781 536.785156 504.988281 C 539.710938 503.558594 541.738281 503.195312 547.960938 502.972656 C 554.945312 502.726562 555.855469 502.847656 559.105469 504.5 C 567.257812 508.644531 573.589844 514.945312 575.824219 521.144531 C 577.507812 525.808594 577.757812 535.667969 576.320312 540.640625 C 574.214844 547.925781 569.746094 555.609375 565.144531 559.871094 C 559.304688 565.273438 555.410156 567.003906 548.296875 567.347656 C 542.9375 567.609375 542.183594 567.464844 537.972656 565.335938 Z M 550.746094 549.929688 C 553.769531 548.367188 557.773438 543.347656 559.007812 539.570312 C 560.488281 535.035156 561.109375 530.578125 560.5625 528.402344 C 559.839844 525.511719 556.019531 521.71875 551.046875 518.9375 C 548.515625 517.523438 546.117188 515.75 545.714844 514.996094 C 544.683594 513.074219 543.3125 513.289062 540.429688 515.816406 C 536.980469 518.847656 535.34375 523.910156 535.335938 531.589844 C 535.328125 537.203125 535.527344 538.066406 537.824219 542.296875 C 540.378906 547.007812 544.734375 550.988281 547.332031 550.988281 C 548.082031 550.988281 549.621094 550.511719 550.746094 549.929688 Z M 543.074219 476.230469 C 536.613281 474.957031 529.757812 469.210938 525.847656 461.785156 C 524.023438 458.324219 523.828125 457.253906 523.824219 450.765625 C 523.824219 443.9375 523.957031 443.316406 526.480469 438.191406 C 530.261719 430.511719 534.5625 425.035156 539.566406 421.527344 C 543.308594 418.90625 544.523438 418.445312 548.355469 418.203125 C 552.296875 417.949219 553.300781 418.183594 557.226562 420.277344 C 562.550781 423.109375 567.191406 428.074219 569.011719 432.875 C 570.964844 438.023438 571.402344 448.816406 569.894531 454.691406 C 567.78125 462.941406 562.132812 471.121094 556.453125 474.160156 C 554.664062 475.113281 547.996094 477.015625 546.828125 476.902344 C 546.433594 476.863281 544.742188 476.5625 543.074219 476.230469 Z M 550.726562 456.835938 C 552.882812 453.859375 554.378906 448.707031 554.378906 444.242188 C 554.378906 439.839844 552.675781 437.105469 548.023438 434.015625 L 543.695312 431.144531 L 541.875 433.894531 C 539.671875 437.21875 537.125 444.519531 537.125 447.496094 C 537.125 451.214844 539.238281 455.28125 542.375 457.585938 C 546.40625 460.546875 548.148438 460.390625 550.726562 456.835938 Z M 500.996094 408 C 493.34375 406.078125 485.203125 399.703125 482.410156 393.445312 C 478.964844 385.726562 480.609375 376.503906 486.296875 371.671875 C 490.921875 367.742188 491.476562 367.199219 492.742188 365.371094 C 494.203125 363.265625 497.878906 362.050781 502.816406 362.042969 C 512.960938 362.035156 525.621094 375.363281 526.816406 387.320312 C 527.59375 395.082031 521.199219 405.277344 514.28125 407.3125 C 510.390625 408.457031 504.105469 408.78125 500.996094 408 Z M 508.035156 391.773438 C 509.964844 390.507812 510.335938 388.121094 509.003906 385.523438 C 507.707031 382.992188 503.148438 378.5625 501.839844 378.5625 C 501.179688 378.5625 499.488281 378.085938 498.085938 377.5 C 495.570312 376.449219 495.511719 376.464844 493.609375 378.722656 C 492.011719 380.617188 491.75 381.492188 492.066406 383.851562 C 492.921875 390.234375 502.855469 395.164062 508.035156 391.773438 Z M 269.34375 388.707031 C 265.289062 387.640625 261.21875 385.078125 259.710938 382.632812 C 256.957031 378.179688 258.21875 371.5625 262.417969 368.460938 C 263.625 367.570312 265.128906 365.757812 265.757812 364.433594 C 267.277344 361.230469 269.285156 360.03125 274.046875 359.472656 C 279.277344 358.855469 284.082031 360.988281 286.835938 365.148438 C 288.488281 367.640625 288.75 368.789062 288.75 373.480469 C 288.75 378.355469 288.523438 379.261719 286.566406 382.15625 C 282.957031 387.507812 275.527344 390.332031 269.34375 388.707031 Z M 274.53125 375.953125 C 274.6875 375.480469 273.726562 375.011719 272.25 374.839844 C 269.828125 374.558594 268.261719 375.246094 268.261719 376.59375 C 268.261719 377.511719 274.21875 376.902344 274.53125 375.953125 Z M 320.738281 384.058594 C 313.582031 382.128906 307.429688 375.6875 306.558594 369.21875 C 305.84375 363.894531 309.730469 356.890625 315.308594 353.445312 C 316.617188 352.636719 319.632812 351.777344 322.039062 351.523438 C 326.011719 351.109375 326.800781 351.277344 330.9375 353.402344 C 336.558594 356.289062 338.992188 358.527344 340.976562 362.617188 C 344.078125 369.023438 342.332031 377 336.925781 381.121094 C 332.035156 384.847656 327.027344 385.757812 320.738281 384.058594 Z M 324.339844 368.535156 C 323.351562 367.777344 321.851562 366.285156 321 365.222656 L 319.457031 363.285156 L 318.601562 364.886719 C 317.347656 367.226562 320.03125 369.949219 323.5625 369.925781 L 326.132812 369.910156 Z M 377.828125 383.339844 C 368.34375 380.941406 361.726562 372.808594 362.683594 364.722656 C 363.851562 354.886719 375.480469 345.324219 384.964844 346.402344 C 394.296875 347.46875 402.363281 355.945312 403.203125 365.582031 C 404.222656 377.28125 390.859375 386.628906 377.828125 383.339844 Z M 384.769531 367.761719 C 386.582031 366.792969 386.53125 365.464844 384.621094 363.769531 C 383.773438 363.015625 382.507812 361.128906 381.804688 359.578125 L 380.523438 356.753906 L 377.949219 359.324219 C 374.855469 362.417969 374.46875 365.632812 376.976562 367.386719 C 378.804688 368.667969 382.722656 368.855469 384.769531 367.761719 Z M 434.480469 382.792969 C 427.875 381.695312 421.816406 377.429688 419.992188 372.589844 C 417.925781 367.113281 420.4375 359.164062 425.527344 355.085938 C 428.882812 352.394531 435.082031 350.28125 439.449219 350.335938 C 443.859375 350.390625 452.226562 354.734375 455.234375 358.527344 C 462.394531 367.5625 458.214844 378.390625 446.121094 382.125 C 440.988281 383.710938 440.238281 383.753906 434.480469 382.792969 Z M 439.554688 368.621094 C 440.582031 368.214844 440.035156 367.59375 436.695312 365.398438 C 432.867188 362.878906 432.5 362.769531 431.648438 363.933594 C 430.253906 365.84375 430.546875 367.761719 432.347656 368.484375 C 434.269531 369.257812 437.773438 369.324219 439.550781 368.621094 Z M 687.726562 592.527344 C 693.761719 590.542969 697.355469 588.183594 707.550781 579.503906 C 708.894531 578.359375 713.765625 564.015625 716.742188 552.425781 C 718.984375 543.703125 721.464844 530.0625 722.230469 522.253906 L 722.6875 517.582031 L 720.148438 524.929688 C 717.03125 533.949219 715.742188 536.511719 711.476562 542.179688 C 699.933594 557.527344 672.351562 567.578125 655.671875 562.515625 C 647.949219 560.171875 643.761719 557.808594 638.691406 552.945312 C 633.292969 547.765625 630.605469 543.730469 627.234375 535.761719 C 621.359375 521.859375 618.578125 503.589844 619.820312 487.050781 C 620.484375 478.183594 621.734375 472.429688 624.820312 464.0625 C 630.261719 449.289062 638.492188 439.644531 651.066406 433.300781 C 656.164062 430.722656 665.8125 428.140625 670.328125 428.140625 C 672.089844 428.140625 674.695312 427.65625 676.113281 427.0625 C 679.667969 425.578125 681.980469 425.707031 687.84375 427.699219 C 696.515625 430.644531 701.621094 434.472656 707.152344 442.160156 C 710.722656 447.125 716.140625 457.695312 717.949219 463.21875 C 720.164062 469.984375 719.929688 466.507812 717.625 458.425781 C 713.746094 444.8125 709.292969 435.390625 700.535156 422.253906 C 695.363281 414.5 694.59375 414.027344 684.242188 412.277344 C 673.609375 410.480469 664.664062 412.195312 651.785156 418.503906 C 636.109375 426.183594 624.929688 440.195312 615.125 464.449219 C 608.808594 480.066406 607.371094 486.226562 607.34375 497.828125 C 607.300781 516.882812 611.683594 534.707031 621.21875 554.226562 C 624.695312 561.335938 627.585938 566.066406 631.082031 570.363281 C 639.265625 580.417969 650.996094 588.929688 661.246094 592.25 C 669.230469 594.839844 680.34375 594.957031 687.726562 592.53125 Z M 672.480469 546.351562 C 684.546875 544.199219 696.378906 536.347656 701.378906 527.167969 C 702.414062 525.269531 704.089844 520.554688 705.105469 516.695312 C 706.632812 510.882812 706.945312 508.078125 706.941406 500.339844 C 706.929688 480.679688 703.1875 466.394531 694.777344 453.867188 C 690.289062 447.183594 687.453125 444.996094 680.542969 442.882812 C 677.378906 441.917969 674.078125 440.410156 673.207031 439.535156 C 671.734375 438.058594 671.410156 438.011719 668.535156 438.859375 C 656.089844 442.53125 646.765625 452.894531 640.183594 470.363281 C 637.855469 476.542969 637.90625 476.753906 641.710938 476.753906 C 645.433594 476.753906 647.402344 478.164062 648.996094 481.976562 C 651.605469 488.222656 644.449219 494.800781 638.347656 491.757812 L 636.113281 490.644531 L 636.542969 499.445312 C 637.457031 518.011719 641.535156 531.144531 648.945312 539.382812 C 652.640625 543.488281 656.359375 545.730469 661.019531 546.648438 C 665.273438 547.492188 666.21875 547.464844 672.480469 546.351562 Z M 655.972656 541.164062 C 650.5 540.046875 648.449219 531.886719 652.601562 527.738281 C 658.308594 522.035156 667.601562 527.308594 666.015625 535.351562 C 665.609375 537.410156 662.589844 540.925781 661.210938 540.941406 C 660.769531 540.945312 659.761719 541.070312 658.972656 541.21875 C 658.183594 541.363281 656.832031 541.339844 655.972656 541.164062 Z M 679.691406 538.335938 C 678.386719 537.691406 676.875 536.09375 676.171875 534.609375 C 675.074219 532.292969 675.046875 531.6875 675.941406 529.105469 C 676.757812 526.75 677.578125 525.902344 680.316406 524.59375 L 683.6875 522.984375 L 686.785156 524.601562 C 689.175781 525.847656 690.113281 526.882812 690.890625 529.113281 C 691.78125 531.691406 691.757812 532.292969 690.652344 534.617188 C 689.410156 537.234375 685.96875 539.511719 683.304688 539.476562 C 682.574219 539.46875 680.949219 538.953125 679.691406 538.335938 Z M 672.390625 520.101562 C 663.859375 517.035156 658 511.882812 653.941406 503.875 C 651.996094 500.035156 651.785156 498.953125 651.785156 492.796875 C 651.785156 486.90625 652.046875 485.410156 653.695312 481.894531 C 656.164062 476.636719 660.539062 471.921875 664.878906 469.851562 C 666.769531 468.949219 668.878906 467.925781 669.566406 467.574219 C 672.597656 466.019531 682.425781 468.117188 688.488281 471.613281 C 696.875 476.453125 702.71875 487.46875 702.773438 498.542969 C 702.792969 503.007812 702.457031 504.632812 700.796875 508.027344 C 695.574219 518.726562 683.195312 523.988281 672.390625 520.101562 Z M 683.128906 503.371094 C 685.046875 502.082031 685.617188 501.164062 685.792969 499.105469 C 686.359375 492.351562 681.792969 485.441406 676.191406 484.574219 C 674.628906 484.332031 671.742188 483.664062 669.777344 483.09375 C 667.8125 482.519531 665.945312 482.304688 665.632812 482.621094 C 665.320312 482.933594 664.6875 484.984375 664.226562 487.183594 C 663.4375 490.945312 663.5 491.40625 665.335938 495.160156 C 667.917969 500.433594 672.925781 503.714844 680.253906 504.9375 C 680.492188 504.976562 681.785156 504.273438 683.128906 503.371094 Z M 644.472656 518.890625 C 642.117188 518.414062 639.414062 515.332031 638.886719 512.527344 C 637.460938 504.9375 646.925781 499.992188 652.40625 505.464844 C 657.992188 511.050781 652.40625 520.5 644.472656 518.890625 Z M 652.027344 468.839844 C 647.222656 466.703125 645.480469 462.597656 647.417969 457.964844 C 648.71875 454.859375 652.566406 452.929688 656.132812 453.601562 C 658.996094 454.136719 661.960938 456.996094 662.582031 459.816406 C 663.230469 462.769531 660.941406 466.96875 657.835938 468.515625 C 654.960938 469.945312 654.566406 469.964844 652.027344 468.839844 Z M 672.632812 459.878906 C 669.894531 458.945312 668.828125 457.9375 667.699219 455.21875 C 666.660156 452.722656 666.664062 452.238281 667.726562 449.582031 C 668.644531 447.292969 669.546875 446.390625 671.980469 445.351562 C 674.851562 444.121094 675.273438 444.105469 677.945312 445.15625 C 685.230469 448.015625 684.234375 458.878906 676.585938 460 C 675.203125 460.203125 673.421875 460.148438 672.632812 459.878906 Z M 167.484375 527.855469 C 169.378906 525.960938 168.472656 522.714844 165.15625 519.5 L 161.964844 516.40625 L 160.839844 518.574219 C 159.136719 521.871094 159.46875 523.640625 162.285156 526.296875 C 165.039062 528.894531 166.121094 529.21875 167.484375 527.855469 Z M 92.488281 520.496094 C 98.429688 515.628906 101.539062 511.886719 104.816406 505.652344 C 106.378906 502.675781 108.269531 500.175781 109.496094 499.449219 L 111.554688 498.234375 L 111.539062 484.558594 C 111.523438 472.667969 111.359375 470.691406 110.28125 469.40625 C 107.796875 466.445312 85.742188 447.535156 84.773438 447.535156 C 84.609375 447.535156 85.382812 451.496094 86.492188 456.335938 C 89.53125 469.585938 90.953125 482.289062 90.523438 492.425781 C 90.234375 499.316406 89.5625 503.449219 87.191406 512.910156 C 85.558594 519.429688 84.09375 525.332031 83.9375 526.023438 C 83.683594 527.144531 83.878906 527.121094 85.746094 525.792969 C 86.894531 524.976562 89.929688 522.589844 92.488281 520.496094 Z M 723.082031 514.886719 C 722.882812 514.394531 722.71875 514.796875 722.71875 515.785156 C 722.71875 516.773438 722.882812 517.179688 723.082031 516.683594 C 723.28125 516.191406 723.28125 515.382812 723.082031 514.886719 Z M 170.304688 477.53125 C 172.984375 474.589844 174.660156 469.191406 173.679688 466.644531 C 173.101562 465.132812 169.109375 463.015625 168.351562 463.820312 C 167.339844 464.890625 165.488281 471.234375 165.488281 473.625 C 165.488281 475.871094 167.140625 479.148438 168.277344 479.148438 C 168.582031 479.148438 169.492188 478.417969 170.304688 477.53125 Z M 720.230469 468.234375 C 720 467.664062 719.828125 467.832031 719.792969 468.667969 C 719.761719 469.425781 719.933594 469.851562 720.171875 469.613281 C 720.410156 469.375 720.4375 468.753906 720.230469 468.234375 Z M 372.53125 300.269531 C 406.230469 296.328125 451.078125 294.964844 476.230469 297.117188 L 481.800781 297.59375 L 481.804688 290.125 C 481.808594 286.015625 481.4375 277.792969 480.984375 271.847656 L 480.15625 261.039062 L 477.566406 260.949219 C 476.140625 260.898438 450.703125 260.625 421.042969 260.34375 C 375.558594 259.914062 366.992188 259.988281 366.320312 260.828125 C 364.648438 262.921875 362.238281 278.722656 361.359375 293.328125 L 360.847656 301.851562 L 363.632812 301.417969 C 365.167969 301.179688 369.171875 300.664062 372.53125 300.269531 Z M 375.390625 248.175781 C 378.199219 247.582031 386.550781 246.246094 393.949219 245.199219 C 406.59375 243.414062 408.945312 243.304688 433.277344 243.375 C 447.511719 243.414062 463.75 243.703125 469.371094 244.015625 C 479.347656 244.566406 479.578125 244.546875 479.296875 243.140625 C 479.140625 242.351562 478.8125 238.308594 478.566406 234.160156 C 477.300781 212.808594 472.117188 196.359375 464.023438 188.027344 C 460.578125 184.480469 458.792969 184.277344 439.664062 185.273438 C 410.390625 186.792969 400.117188 188.328125 391.398438 192.476562 C 381.589844 197.148438 375.605469 204.472656 372.570312 215.527344 C 371.292969 220.183594 368.21875 242.859375 368.21875 247.628906 C 368.21875 249.550781 368.679688 249.585938 375.390625 248.171875 Z M 394.179688 124.964844 C 400.195312 123.777344 405.246094 122.679688 405.398438 122.523438 C 405.550781 122.371094 401.859375 120.207031 397.191406 117.71875 C 390.515625 114.15625 388.015625 113.179688 385.472656 113.148438 L 382.234375 113.105469 L 380.597656 118.003906 C 379.695312 120.699219 378.761719 124.335938 378.523438 126.089844 L 378.085938 129.277344 L 380.660156 128.203125 C 382.078125 127.609375 388.160156 126.15625 394.179688 124.964844 Z M 394.179688 124.964844 " fill-opacity="1" fill-rule="nonzero"/></g></svg>